<svg width="40" height="40" viewBox="0 0 40 40" fill="none" xmlns="http://www.w3.org/2000/svg">
<path d="M36.1 17.4L34.4666 24.3667C33.0666 30.3834 30.3 32.8167 25.1 32.3167C24.2666 32.25 23.3666 32.1 22.4 31.8667L19.6 31.2C12.65 29.55 10.5 26.1167 12.1333 19.15L13.7666 12.1667C14.1 10.75 14.5 9.5167 15 8.50003C16.95 4.4667 20.2666 3.38337 25.8333 4.70003L28.6166 5.35003C35.6 6.98337 37.7333 10.4334 36.1 17.4Z" stroke="white" stroke-width="1.5" stroke-linecap="round" stroke-linejoin="round"/>
<path d="M25.1001 32.3166C24.0667 33.0166 22.7667 33.5999 21.1834 34.1166L18.5501 34.9833C11.9334 37.1166 8.45008 35.3333 6.30008 28.7166L4.16675 22.1333C2.03341 15.5166 3.80008 12.0166 10.4167 9.88327L13.0501 9.01661C13.7334 8.79994 14.3834 8.61661 15.0001 8.49994C14.5001 9.51661 14.1001 10.7499 13.7667 12.1666L12.1334 19.1499C10.5001 26.1166 12.6501 29.5499 19.6001 31.1999L22.4001 31.8666C23.3667 32.0999 24.2667 32.2499 25.1001 32.3166Z" stroke="white" stroke-width="1.5" stroke-linecap="round" stroke-linejoin="round"/>
<path d="M21.0664 14.2167L29.1497 16.2667" stroke="white" stroke-width="1.5" stroke-linecap="round" stroke-linejoin="round"/>
<path d="M19.4331 20.6667L24.2664 21.9" stroke="white" stroke-width="1.5" stroke-linecap="round" stroke-linejoin="round"/>
</svg>
