<svg width="60" height="60" viewBox="0 0 60 60" fill="none" xmlns="http://www.w3.org/2000/svg">
<path d="M30 16.1V24.425" stroke="white" stroke-width="1.5" stroke-miterlimit="10" stroke-linecap="round"/>
<path d="M30.05 5C20.85 5 13.4 12.45 13.4 21.65V26.9C13.4 28.6 12.7 31.15 11.825 32.6L8.64999 37.9C6.69999 41.175 8.04999 44.825 11.65 46.025C23.6 50 36.525 50 48.475 46.025C51.85 44.9 53.3 40.95 51.475 37.9L48.3 32.6C47.425 31.15 46.725 28.575 46.725 26.9V21.65C46.7 12.5 39.2 5 30.05 5Z" stroke="white" stroke-width="1.5" stroke-miterlimit="10" stroke-linecap="round"/>
<path d="M38.325 47.05C38.325 51.625 34.575 55.375 30 55.375C27.725 55.375 25.625 54.425 24.125 52.925C22.625 51.425 21.675 49.325 21.675 47.05" stroke="white" stroke-width="1.5" stroke-miterlimit="10"/>
</svg>
