<svg width="40" height="40" viewBox="0 0 40 40" fill="none" xmlns="http://www.w3.org/2000/svg">
<path d="M15 36.6667H25C33.3334 36.6667 36.6667 33.3333 36.6667 25V15C36.6667 6.66666 33.3334 3.33333 25 3.33333H15C6.66671 3.33333 3.33337 6.66666 3.33337 15V25C3.33337 33.3333 6.66671 36.6667 15 36.6667Z" stroke="white" stroke-width="1.5" stroke-linecap="round" stroke-linejoin="round"/>
<path d="M25.95 30.8333V24.3333" stroke="white" stroke-width="1.5" stroke-miterlimit="10" stroke-linecap="round" stroke-linejoin="round"/>
<path d="M25.95 12.4167V9.16666" stroke="white" stroke-width="1.5" stroke-miterlimit="10" stroke-linecap="round" stroke-linejoin="round"/>
<path d="M25.95 21.0833C28.3433 21.0833 30.2834 19.1432 30.2834 16.75C30.2834 14.3568 28.3433 12.4167 25.95 12.4167C23.5568 12.4167 21.6167 14.3568 21.6167 16.75C21.6167 19.1432 23.5568 21.0833 25.95 21.0833Z" stroke="white" stroke-width="1.5" stroke-miterlimit="10" stroke-linecap="round" stroke-linejoin="round"/>
<path d="M14.05 30.8333V27.5833" stroke="white" stroke-width="1.5" stroke-miterlimit="10" stroke-linecap="round" stroke-linejoin="round"/>
<path d="M14.05 15.6667V9.16666" stroke="white" stroke-width="1.5" stroke-miterlimit="10" stroke-linecap="round" stroke-linejoin="round"/>
<path d="M14.05 27.5833C16.4432 27.5833 18.3833 25.6432 18.3833 23.25C18.3833 20.8568 16.4432 18.9167 14.05 18.9167C11.6568 18.9167 9.71667 20.8568 9.71667 23.25C9.71667 25.6432 11.6568 27.5833 14.05 27.5833Z" stroke="white" stroke-width="1.5" stroke-miterlimit="10" stroke-linecap="round" stroke-linejoin="round"/>
</svg>
