<svg width="40" height="40" viewBox="0 0 40 40" fill="none" xmlns="http://www.w3.org/2000/svg">
<path d="M30.2334 36.0333C28.7667 36.4667 27.0334 36.6667 25.0001 36.6667H15.0001C12.9667 36.6667 11.2334 36.4667 9.76672 36.0333C10.1334 31.7 14.5834 28.2833 20.0001 28.2833C25.4167 28.2833 29.8667 31.7 30.2334 36.0333Z" stroke="white" stroke-width="1.5" stroke-linecap="round" stroke-linejoin="round"/>
<path d="M25 3.33334H15C6.66671 3.33334 3.33337 6.66668 3.33337 15V25C3.33337 31.3 5.23337 34.75 9.76671 36.0333C10.1334 31.7 14.5834 28.2833 20 28.2833C25.4167 28.2833 29.8667 31.7 30.2334 36.0333C34.7667 34.75 36.6667 31.3 36.6667 25V15C36.6667 6.66668 33.3334 3.33334 25 3.33334ZM20 23.6166C16.7 23.6166 14.0334 20.9334 14.0334 17.6334C14.0334 14.3334 16.7 11.6667 20 11.6667C23.3 11.6667 25.9667 14.3334 25.9667 17.6334C25.9667 20.9334 23.3 23.6166 20 23.6166Z" stroke="white" stroke-width="1.5" stroke-linecap="round" stroke-linejoin="round"/>
<path d="M25.9667 17.6334C25.9667 20.9334 23.3 23.6166 20 23.6166C16.7 23.6166 14.0333 20.9334 14.0333 17.6334C14.0333 14.3334 16.7 11.6667 20 11.6667C23.3 11.6667 25.9667 14.3334 25.9667 17.6334Z" stroke="white" stroke-width="1.5" stroke-linecap="round" stroke-linejoin="round"/>
</svg>
